<?xml version="1.0" encoding="UTF-8" standalone="no"?>
<!-- Created with Inkscape (http://www.inkscape.org/) -->

<svg
   xmlns:dc="http://purl.org/dc/elements/1.1/"
   xmlns:cc="http://creativecommons.org/ns#"
   xmlns:rdf="http://www.w3.org/1999/02/22-rdf-syntax-ns#"
   xmlns:svg="http://www.w3.org/2000/svg"
   xmlns="http://www.w3.org/2000/svg"
   xmlns:sodipodi="http://sodipodi.sourceforge.net/DTD/sodipodi-0.dtd"
   xmlns:inkscape="http://www.inkscape.org/namespaces/inkscape"
   width="228.25"
   height="143.71875"
   id="svg4659"
   version="1.1"
   inkscape:version="0.48.1 r9760"
   sodipodi:docname="bye_bye.svg">
  <defs
     id="defs4661" />
  <sodipodi:namedview
     id="base"
     pagecolor="#ffffff"
     bordercolor="#666666"
     borderopacity="1.0"
     inkscape:pageopacity="0.0"
     inkscape:pageshadow="2"
     inkscape:zoom="0.91292535"
     inkscape:cx="198.77722"
     inkscape:cy="-36.355207"
     inkscape:document-units="px"
     inkscape:current-layer="layer1"
     showgrid="false"
     inkscape:window-width="1398"
     inkscape:window-height="918"
     inkscape:window-x="0"
     inkscape:window-y="30"
     inkscape:window-maximized="1"
     showguides="true"
     inkscape:guide-bbox="true"
     fit-margin-top="0"
     fit-margin-left="0"
     fit-margin-right="0"
     fit-margin-bottom="0" />
  <metadata
     id="metadata4664">
    <rdf:RDF>
      <cc:Work
         rdf:about="">
        <dc:format>image/svg+xml</dc:format>
        <dc:type
           rdf:resource="http://purl.org/dc/dcmitype/StillImage" />
        <dc:title></dc:title>
      </cc:Work>
    </rdf:RDF>
  </metadata>
  <g
     inkscape:label="Capa 1"
     inkscape:groupmode="layer"
     id="layer1"
     transform="translate(-285.71875,-158.40625)">
    <path
       style="color:#000000;fill:#000000;fill-opacity:1;fill-rule:nonzero;stroke:#ffffff;stroke-width:0.59442931;stroke-linecap:butt;stroke-linejoin:miter;stroke-miterlimit:4;stroke-opacity:1;stroke-dashoffset:0;marker:none;visibility:visible;display:inline;overflow:visible;enable-background:accumulate"
       d="m 488.27828,224.22788 c 0,27.51199 -33.72196,49.81486 -75.3201,49.81486 -20.21423,-0.16062 -39.06235,-5.94503 -50.12725,-12.63351 l -58.11788,3.67999 41.106,-19.51131 c -4.79975,-6.53798 -8.18096,-14.02842 -8.18096,-21.35003 0,-27.512 33.72196,-49.81487 75.32009,-49.81487 41.59814,0 75.3201,22.30287 75.3201,49.81487 z"
       id="path4894"
       inkscape:connector-curvature="0"
       sodipodi:nodetypes="sccccsss" />
    <path
       sodipodi:type="inkscape:offset"
       inkscape:radius="-4.5944967"
       inkscape:original="M 412.96875 174.40625 C 371.37062 174.40625 337.625 196.70675 337.625 224.21875 C 337.625 231.54036 341.01275 239.02452 345.8125 245.5625 L 304.71875 265.09375 L 362.84375 261.40625 C 373.90865 268.09473 392.75452 273.87063 412.96875 274.03125 C 454.56689 274.03125 488.28125 251.73074 488.28125 224.21875 C 488.28125 196.70675 454.56689 174.40625 412.96875 174.40625 z "
       style="color:#000000;fill:#ffffff;fill-opacity:1;fill-rule:nonzero;stroke:#ffffff;stroke-width:0.59442931;stroke-linecap:butt;stroke-linejoin:miter;stroke-miterlimit:4;stroke-opacity:1;stroke-dashoffset:0;marker:none;visibility:visible;display:inline;overflow:visible;enable-background:accumulate"
       id="path5468"
       d="m 412.96875,179 c -19.97804,0 -38.0105,5.42236 -50.75,13.84375 -12.7395,8.42139 -20,19.4975 -20,31.375 0,5.90434 2.89226,12.60397 7.3125,18.625 a 4.5949562,4.5949562 0 0 1 -1.75,6.875 l -19.5,9.28125 34.28125,-2.1875 a 4.5949562,4.5949562 0 0 1 2.65625,0.65625 c 10.08498,6.09614 28.39991,11.80892 47.75,11.96875 0.0106,9e-5 0.0207,-8e-5 0.0312,0 19.96545,-0.006 37.96282,-5.39609 50.6875,-13.8125 12.73139,-8.42085 20,-19.52702 20,-31.40625 0,-11.87924 -7.26861,-22.9854 -20,-31.40625 C 450.95611,184.39165 432.94679,179 412.96875,179 z" />
    <path
       style="font-size:111.55353546px;font-style:normal;font-variant:normal;font-weight:normal;font-stretch:normal;text-align:start;line-height:125%;letter-spacing:0px;word-spacing:0px;writing-mode:lr-tb;text-anchor:start;fill:#000000;fill-opacity:1;stroke:none;font-family:Aller Display;-inkscape-font-specification:Aller Display"
       d="m 357.9375,208.4375 c -1.39363,3e-5 -2.6423,0.0321 -3.6875,0.125 -1.04522,0.0929 -1.99237,0.20442 -2.875,0.34375 l 0,24.9375 c 1.16134,0.13936 2.25124,0.21959 3.25,0.3125 0.99875,0.0929 2.12074,0.15625 3.375,0.15625 1.57942,0 3.02783,-0.11148 4.375,-0.34375 1.34715,-0.23227 2.52445,-0.63808 3.5,-1.21875 0.97552,-0.58068 1.72378,-1.37624 2.28125,-2.375 0.55743,-0.99875 0.84373,-2.27952 0.84375,-3.8125 -2e-5,-0.90584 -0.11151,-1.67818 -0.34375,-2.375 -0.23229,-0.6968 -0.54266,-1.29347 -0.9375,-1.78125 -0.37165,-0.51098 -0.80153,-0.92482 -1.3125,-1.25 -0.48779,-0.3484 -0.99704,-0.6347 -1.53125,-0.84375 0.74325,-0.48776 1.35596,-1.17986 1.84375,-2.0625 0.48775,-0.90582 0.71873,-1.90832 0.71875,-3 -2e-5,-1.32391 -0.27028,-2.42183 -0.78125,-3.28125 -0.48778,-0.8826 -1.14062,-1.58275 -2,-2.09375 -0.85941,-0.5342 -1.86991,-0.88468 -3.03125,-1.09375 -1.13813,-0.23224 -2.36358,-0.34372 -3.6875,-0.34375 z m -0.0312,4.8125 c 0.20904,2e-5 0.36062,2e-5 0.5,0 0.34839,2e-5 0.72211,0.0241 1.09375,0.0937 0.37163,0.0697 0.69804,0.18921 1,0.375 0.30194,0.18584 0.53292,0.45609 0.71875,0.78125 0.20903,0.3252 0.34374,0.731 0.34375,1.21875 -10e-6,0.99877 -0.28631,1.70692 -0.84375,2.125 -0.55745,0.39487 -1.345,0.59377 -2.34375,0.59375 l -0.96875,0 0,-5.15625 c 0.13935,-0.0232 0.31418,-0.0312 0.5,-0.0312 z m 39.625,2.21875 c -1.48653,2e-5 -2.79136,0.23903 -3.90625,0.75 -1.11489,0.48777 -2.03799,1.17188 -2.78125,2.03125 -0.74327,0.85942 -1.31587,1.86991 -1.6875,3.03125 -0.37163,1.16135 -0.5625,2.42607 -0.5625,3.75 0,1.34716 0.18285,2.54939 0.53125,3.6875 0.37163,1.13812 0.94424,2.13258 1.6875,2.96875 0.76649,0.81294 1.72167,1.47296 2.90625,1.9375 1.20779,0.46454 2.64016,0.6875 4.3125,0.6875 2.16009,0 4.27654,-0.38976 6.34375,-1.15625 -0.0233,-0.90585 -0.15077,-1.75758 -0.40625,-2.59375 -0.23229,-0.83617 -0.5186,-1.55234 -0.84375,-2.15625 -0.81296,0.32518 -1.63259,0.55617 -2.46875,0.71875 -0.83618,0.16259 -1.57643,0.25 -2.25,0.25 -1.04522,0 -1.91215,-0.19889 -2.5625,-0.59375 -0.62713,-0.39485 -1.057,-1.07894 -1.3125,-2.03125 l 10.59375,0 c 0.0464,-0.32517 0.0786,-0.73097 0.125,-1.21875 0.0697,-0.51098 0.12498,-1.09162 0.125,-1.71875 -2e-5,-1.20779 -0.19089,-2.32176 -0.5625,-3.34375 -0.34843,-1.0452 -0.85769,-1.90496 -1.53125,-2.625 -0.6736,-0.74325 -1.49323,-1.3319 -2.46875,-1.75 -0.95232,-0.41807 -2.05024,-0.62498 -3.28125,-0.625 z m 35.71875,0 c -0.44131,2e-5 -0.9586,0.008 -1.5625,0.0312 -0.58067,0.0233 -1.18539,0.0474 -1.8125,0.0937 -0.62714,0.0465 -1.23986,0.11784 -1.84375,0.1875 -0.60391,0.0465 -1.12922,0.0866 -1.59375,0.15625 l 0,17.90625 c 1.37039,0.18581 2.69929,0.32855 4,0.375 1.32393,0.0697 2.37455,0.0937 3.1875,0.0937 3.08917,0 5.42056,-0.40581 7,-1.21875 1.57942,-0.83617 2.37498,-2.33186 2.375,-4.46875 -2e-5,-1.18456 -0.31039,-2.09963 -0.9375,-2.75 -0.62714,-0.65034 -1.43074,-1.15159 -2.40625,-1.5 0.69679,-0.44131 1.26138,-0.95859 1.65625,-1.5625 0.41807,-0.62712 0.62497,-1.36736 0.625,-2.25 -3e-5,-1.742 -0.7162,-3.03078 -2.15625,-3.84375 -1.44009,-0.83615 -3.62789,-1.24999 -6.53125,-1.25 z m 37.6875,0 c -1.48653,2e-5 -2.76012,0.23903 -3.875,0.75 -1.11491,0.48777 -2.06924,1.17188 -2.8125,2.03125 -0.74326,0.85942 -1.28462,1.86991 -1.65625,3.03125 -0.37164,1.16135 -0.5625,2.42607 -0.5625,3.75 0,1.34716 0.18285,2.54939 0.53125,3.6875 0.37163,1.13812 0.91299,2.13258 1.65625,2.96875 0.76649,0.81294 1.75293,1.47296 2.9375,1.9375 1.2078,0.46454 2.64015,0.6875 4.3125,0.6875 2.16009,0 4.27653,-0.38976 6.34375,-1.15625 -0.0233,-0.90585 -0.15076,-1.75758 -0.40625,-2.59375 -0.23228,-0.83617 -0.5186,-1.55234 -0.84375,-2.15625 -0.81296,0.32518 -1.6326,0.55617 -2.46875,0.71875 -0.83618,0.16259 -1.60768,0.25 -2.28125,0.25 -1.04522,0 -1.8809,-0.19889 -2.53125,-0.59375 -0.62713,-0.39485 -1.05702,-1.07894 -1.3125,-2.03125 l 10.5625,0 c 0.0464,-0.32517 0.1098,-0.73097 0.15625,-1.21875 0.0697,-0.51098 0.0937,-1.09162 0.0937,-1.71875 -10e-6,-1.20779 -0.19089,-2.32176 -0.5625,-3.34375 -0.34841,-1.0452 -0.85768,-1.90496 -1.53125,-2.625 -0.67359,-0.74325 -1.49324,-1.3319 -2.46875,-1.75 -0.95232,-0.41807 -2.05024,-0.62498 -3.28125,-0.625 z m -98.21875,0.21875 c -0.76648,2e-5 -1.47465,0.0161 -2.125,0.0625 -0.62712,0.0465 -1.08824,0.0786 -1.34375,0.125 l 6.6875,11.6875 0,6.28125 c 0.58067,0.0929 1.13723,0.17228 1.625,0.21875 0.48775,0.0464 0.91763,0.0937 1.3125,0.0937 0.39485,0 0.85598,-0.0473 1.34375,-0.0937 0.48775,-0.0465 1.02109,-0.12585 1.625,-0.21875 l 0,-6.28125 6.71875,-11.6875 c -0.25552,-0.0464 -0.67736,-0.0786 -1.28125,-0.125 -0.60392,-0.0464 -1.29603,-0.0625 -2.0625,-0.0625 -0.60391,2e-5 -1.18455,0.0161 -1.71875,0.0625 -0.51101,0.0465 -0.84544,0.0786 -1.03125,0.125 l -3.40625,6.875 -3.4375,-6.875 c -0.18582,-0.0464 -0.54433,-0.0786 -1.125,-0.125 -0.58068,-0.0464 -1.17734,-0.0625 -1.78125,-0.0625 z m 73.40625,0 c -0.76649,2e-5 -1.47464,0.0161 -2.125,0.0625 -0.62712,0.0465 -1.057,0.0786 -1.3125,0.125 l 6.6875,11.6875 0,6.28125 c 0.58067,0.0929 1.10597,0.17228 1.59375,0.21875 0.48776,0.0464 0.94888,0.0937 1.34375,0.0937 0.39484,0 0.82472,-0.0473 1.3125,-0.0937 0.48775,-0.0465 1.02109,-0.12585 1.625,-0.21875 l 0,-6.28125 6.71875,-11.6875 c -0.25551,-0.0464 -0.67737,-0.0786 -1.28125,-0.125 -0.60392,-0.0464 -1.26478,-0.0625 -2.03125,-0.0625 -0.60392,2e-5 -1.18454,0.0161 -1.71875,0.0625 -0.511,0.0465 -0.84545,0.0786 -1.03125,0.125 l -3.4375,6.875 -3.40625,-6.875 c -0.18582,-0.0464 -0.57558,-0.0786 -1.15625,-0.125 -0.58068,-0.0464 -1.17736,-0.0625 -1.78125,-0.0625 z M 434,219.40625 c 0.83616,2e-5 1.38554,0.1516 1.6875,0.5 0.32516,0.32518 0.49999,0.6989 0.5,1.09375 -10e-6,0.4181 -0.16681,0.8239 -0.46875,1.21875 -0.30196,0.37164 -0.89864,0.56252 -1.78125,0.5625 l -1.6875,0 0,-3.3125 c 0.23225,-0.0232 0.51857,-0.0312 0.84375,-0.0312 0.3484,-0.0232 0.65075,-0.0312 0.90625,-0.0312 z m -36.6875,0.5 c 0.85939,1e-5 1.49618,0.25506 1.9375,0.8125 0.46452,0.53422 0.73479,1.21831 0.78125,2.03125 l -5.5625,0 c 0.0929,-0.97552 0.40328,-1.6917 0.9375,-2.15625 0.53421,-0.46453 1.16298,-0.68749 1.90625,-0.6875 z m 73.4375,0 c 0.85939,1e-5 1.49618,0.25506 1.9375,0.8125 0.46452,0.53422 0.73478,1.21831 0.78125,2.03125 l -5.59375,0 c 0.0929,-0.97552 0.40328,-1.6917 0.9375,-2.15625 0.53421,-0.46453 1.19423,-0.68749 1.9375,-0.6875 z m -113.34375,3.46875 1.4375,0 c 1.16133,2e-5 2.09246,0.21495 2.8125,0.65625 0.74325,0.41809 1.09374,1.19761 1.09375,2.3125 -10e-6,0.58067 -0.11149,1.0739 -0.34375,1.46875 -0.20905,0.37164 -0.47213,0.67399 -0.84375,0.90625 -0.37164,0.20904 -0.81673,0.3446 -1.28125,0.4375 -0.44133,0.0929 -0.8712,0.15625 -1.3125,0.15625 l -0.96875,0 c -0.23227,-0.0232 -0.43117,-0.0704 -0.59375,-0.0937 l 0,-5.84375 z m 74.84375,3.0625 1.59375,0 c 0.60389,1e-5 1.09711,0.0714 1.46875,0.1875 0.37162,0.0929 0.66594,0.21242 0.875,0.375 0.20903,0.1626 0.33656,0.36149 0.40625,0.59375 0.0929,0.20905 0.15624,0.42398 0.15625,0.65625 -10e-6,0.58068 -0.20693,1.04983 -0.625,1.375 -0.4181,0.32518 -1.11823,0.46875 -2.09375,0.46875 -0.511,0 -0.9168,-0.008 -1.21875,-0.0312 -0.30195,-0.0232 -0.49283,-0.0312 -0.5625,-0.0312 l 0,-3.59375 z m -20.09375,1.53125 c -0.37163,1e-5 -0.78546,0.0553 -1.25,0.125 -0.44131,0.0465 -0.92651,0.10262 -1.4375,0.21875 l -2.40625,9.3125 c 0.67358,0.16259 1.23816,0.26604 1.65625,0.3125 0.4413,0.0464 0.84712,0.0625 1.21875,0.0625 0.3484,-1e-5 0.74618,-0.0161 1.1875,-0.0625 0.44131,-0.0232 0.94254,-0.11064 1.5,-0.25 l 2.625,-9.28125 c -0.60391,-0.16258 -1.16131,-0.26604 -1.71875,-0.3125 -0.53423,-0.0697 -1.00337,-0.12499 -1.375,-0.125 z"
       id="path5494"
       inkscape:connector-curvature="0" />
  </g>
</svg>
