<?xml version="1.0" encoding="UTF-8" standalone="no"?>
<!-- Created with Inkscape (http://www.inkscape.org/) -->

<svg
   xmlns:dc="http://purl.org/dc/elements/1.1/"
   xmlns:cc="http://creativecommons.org/ns#"
   xmlns:rdf="http://www.w3.org/1999/02/22-rdf-syntax-ns#"
   xmlns:svg="http://www.w3.org/2000/svg"
   xmlns="http://www.w3.org/2000/svg"
   xmlns:sodipodi="http://sodipodi.sourceforge.net/DTD/sodipodi-0.dtd"
   xmlns:inkscape="http://www.inkscape.org/namespaces/inkscape"
   width="585.8175"
   height="515.8175"
   id="svg22127"
   version="1.1"
   inkscape:version="0.48.1 r9760"
   sodipodi:docname="castilla_leon.svg">
  <defs
     id="defs22129" />
  <sodipodi:namedview
     id="base"
     pagecolor="#ffffff"
     bordercolor="#666666"
     borderopacity="1.0"
     inkscape:pageopacity="0.0"
     inkscape:pageshadow="2"
     inkscape:zoom="5.6"
     inkscape:cx="333.7175"
     inkscape:cy="232.32845"
     inkscape:document-units="px"
     inkscape:current-layer="layer1"
     showgrid="false"
     fit-margin-top="0"
     fit-margin-left="0"
     fit-margin-right="0"
     fit-margin-bottom="0"
     inkscape:window-width="1398"
     inkscape:window-height="918"
     inkscape:window-x="0"
     inkscape:window-y="30"
     inkscape:window-maximized="1" />
  <metadata
     id="metadata22132">
    <rdf:RDF>
      <cc:Work
         rdf:about="">
        <dc:format>image/svg+xml</dc:format>
        <dc:type
           rdf:resource="http://purl.org/dc/dcmitype/StillImage" />
        <dc:title></dc:title>
      </cc:Work>
    </rdf:RDF>
  </metadata>
  <g
     inkscape:label="Capa 1"
     inkscape:groupmode="layer"
     id="layer1"
     transform="translate(-85.653746,-182.31)">
    <path
       inkscape:connector-curvature="0"
       style="fill:#93c1e6;fill-opacity:1;stroke:#000000;stroke-width:0;stroke-linecap:butt;stroke-linejoin:miter;stroke-miterlimit:4;stroke-opacity:1;stroke-dasharray:none"
       d="m 165.97099,356.32207 c 2.24507,-10.98813 -2.2675,-21.74558 -8.64668,-30.46891 -2.16039,-6.3016 -8.65038,-7.07297 -13.31872,-4.44143 -6.98214,-1.60388 -8.39091,-13.26135 -0.1728,-14.0631 0.0132,-12.49693 13.38309,-19.06502 16.54584,-30.57846 6.13384,-8.51776 16.50468,-3.07337 24.83544,-3.99511 12.92419,0.0818 16.7098,-12.40756 20.8827,-21.48181 6.22631,2.77104 12.60682,8.89314 20.76557,4.8863 9.85667,-3.30665 19.50136,-2.01302 27.18828,5.62293 8.32905,3.44067 16.02665,-17.83802 24.13502,-5.19861 10.59482,4.42691 19.31933,-6.86905 29.87735,-5.23188 11.62753,-0.4638 19.4085,-9.0572 30.064,-11.91084 6.88228,-5.60792 13.81997,0.4962 10.5261,8.15184 -0.88272,8.84462 10.51133,16.62274 1.15855,24.54764 -7.77913,8.84549 -6.6062,21.51213 -6.75565,32.48281 -0.2133,11.21284 6.02501,25.47317 -2.49596,34.78596 -8.24951,7.7272 -19.07029,12.5847 -28.89873,17.78451 -2.25061,3.86869 -11.11744,7.48686 -11.07866,7.56403 -2.76993,7.23768 -5.75263,18.37389 -13.80005,20.65258 -8.80787,-3.77058 -16.60177,-8.84941 -26.39341,-7.75321 -9.54708,-7.96902 -20.62495,-9.56832 -32.62815,-8.45897 -10.90507,-1.67773 -20.9629,-8.16252 -32.4204,-5.27043 -9.62834,2.66867 -18.18743,-3.29556 -26.81842,-6.60251 l -1.28029,-0.52325 -1.27093,-0.50008 z"
       id="path21976" />
    <path
       inkscape:connector-curvature="0"
       style="fill:#c9c9c9;fill-opacity:1;stroke:#000000;stroke-width:0;stroke-linecap:butt;stroke-linejoin:miter;stroke-miterlimit:4;stroke-opacity:1;stroke-dasharray:none"
       d="m 381.90425,259.34132 c -4.6636,0 -4.19915,3.02571 -8.86262,4.65799 -4.66359,1.63228 -3.95169,-0.22147 -8.61515,-1.15419 -4.66386,-0.93273 -7.21377,-0.49465 -7.21377,-0.49465 0,0 -1.22595,0.17197 -1.48396,0.2061 0.1174,0.44557 -0.96306,0.489 -2.47327,0.41221 0.67986,3.09222 0.15579,6.12642 -3.46257,9.19232 -7.77913,8.84549 -6.56966,21.51158 -6.71912,32.48226 -0.21316,11.21284 6.00655,25.47787 -2.51442,34.79065 -3.02214,2.83074 -6.39726,5.28384 -9.93423,7.50225 0.52169,3.41174 0.94024,7.72378 -0.24746,10.09918 -2.33173,4.66365 -0.0132,5.84897 0.4535,11.21216 0.46642,5.36319 4.22711,2.79373 9.35727,5.35874 5.13002,2.565 3.50017,5.82997 1.40138,8.16179 -2.09852,2.33183 -1.87388,5.57335 -4.90525,10.47017 -3.03124,4.89683 -1.16092,6.98295 2.80304,8.61522 3.96409,1.63228 4.40136,3.27426 6.96644,5.60608 2.56481,2.33182 3.02926,4.21305 6.76027,9.10987 3.73087,4.89683 2.5747,1.15055 5.60607,-0.94808 3.03124,-2.09864 3.49318,-2.77596 5.35862,-3.00915 1.86557,-0.23318 6.08464,2.1035 12.6138,2.80304 6.52917,0.69955 3.46984,5.32481 7.66701,9.52209 4.19717,4.19727 5.38143,0.70076 10.51145,0.70076 5.12989,0 3.5073,-2.06592 5.60608,-4.8641 2.09852,-2.79818 16.54505,-0.70197 17.47777,-1.40152 0.93272,-0.69954 3.24836,-1.6254 6.51294,-3.95723 3.26445,-2.33182 5.38948,-4.19526 7.25492,-6.76027 1.86557,-2.56499 4.43909,-6.08093 4.90525,-10.51139 0.46656,-4.43045 -4.69472,-3.26011 -10.05796,-5.35875 -5.3631,-2.09864 -5.8133,-0.47728 -6.51281,-6.30683 -0.69964,-5.82956 -2.35323,-5.58507 -4.45188,-9.31598 -2.09879,-3.73092 -0.22754,-3.03058 -4.65806,-7.46103 -4.43038,-4.43046 -2.31194,-5.82553 -4.41059,-13.52054 -2.09866,-7.695 -2.56891,-7.23512 -2.10235,-11.66558 0.46629,-4.43045 2.10235,-2.09178 2.10235,-3.95723 0,-1.86545 -2.12134,-3.26497 -5.15271,-8.16179 -3.03124,-4.89684 -2.32,-8.18685 -1.1542,-14.71595 1.16607,-6.52909 2.54648,-4.66648 5.11143,-9.56331 2.56507,-4.89682 5.37207,-5.1187 13.06717,-9.31598 7.69483,-4.19727 0.94683,-1.37807 0.24719,-3.7099 -0.69951,-2.33181 -2.55808,-3.04713 -3.95723,-9.10987 -1.39888,-6.06273 -3.9633,-5.14335 -7.46096,-7.70836 -3.49793,-2.56499 -2.56323,-4.18476 -6.76027,-8.61522 -4.1973,-4.43045 -3.7595,-3.01278 -8.65644,-5.11142 -4.89668,-2.09864 -5.35295,-4.20456 -10.01667,-4.20456 z"
       id="path21980" />
    <path
       style="fill:#dad05a;fill-opacity:1;stroke:#000000;stroke-width:0;stroke-linecap:butt;stroke-linejoin:miter;stroke-miterlimit:4;stroke-opacity:1;stroke-dasharray:none"
       d="m 411.34375,59.75 c -7.47962,1.91634 -13.04416,12.56571 -21.59375,5.40625 -8.04314,-2.24286 -18.01301,-3.12036 -23.96875,3.78125 -5.7701,6.53372 -13.64778,8.17504 -19.71875,13.9375 -3.91202,9.58114 12.64395,10.95298 10.5625,21.75 3.7437,12.70082 -12.37888,8.40724 -20.19718,8.69971 -0.45378,0.11744 -2.35081,1.38164 -3.15103,1.81815 -0.01,0.005 -2.74438,1.42307 -2.75447,1.42857 -7.6951,4.19728 -8.176,3.34425 -10.74107,8.24107 -2.56495,4.89683 -3.92768,3.03341 -5.09375,9.5625 -1.1658,6.5291 -1.87499,9.82191 1.15625,14.71875 3.03137,4.89682 5.125,6.2908 5.125,8.15625 0,1.86545 -1.62746,-0.4617 -2.09375,3.96875 -0.46656,4.43046 -0.005,3.96125 2.09375,11.65625 2.09865,7.69501 0.007,9.10079 4.4375,13.53125 4.43052,4.43045 2.55746,3.70658 4.65625,7.4375 2.09865,3.73091 3.73786,3.48294 4.4375,9.3125 0.69951,5.82955 1.16815,4.21386 6.53125,6.3125 5.36324,2.09864 10.49781,0.94455 10.03125,5.375 -0.46616,4.43046 -3.04068,7.93501 -4.90625,10.5 -1.86544,2.56501 -3.98555,4.41818 -7.25,6.75 -3.26458,2.33183 -5.56728,3.26921 -6.5,3.96875 -0.65788,0.49342 -8.03342,-0.41015 -13.0625,0 7.16229,1.57063 13.36544,3.10864 16.25,4.53125 6.13733,8.53528 7.40627,20.46376 13.25,28.5 1.65094,7.94378 14.98329,13.86073 21.4375,10.3125 5.01951,-9.42166 14.77922,-11.92118 22.25,-18.46875 7.9401,-6.72491 10.69951,-17.16254 16.78125,-25.09375 6.18906,-3.01889 12.4329,8.3452 18.4375,0.21875 5.28206,-9.18603 14.33883,-16.10004 18.0625,-26.03125 0.1566,-11.33449 -17.63833,-12.00917 -17.5625,-24.59375 -4.1466,-10.62132 6.05838,-20.03637 3,-30.21875 -4.51212,-7.70702 -4.87337,-23.54652 6.5,-24.75 8.84879,-0.0378 8.77785,-9.82192 0.34375,-11.3125 -9.64134,-2.75863 -9.85272,-17.81576 -20.0625,-16.21875 -10.92507,1.2466 -8.18581,-14.94929 2.09375,-10.90625 6.19381,3.39627 20.5955,0.05933 15.28125,-8.40625 -6.23572,-2.87358 -14.20304,-5.70401 -12.5625,-13.8125 -2.21114,-4.59373 -5.74885,-10.12352 -11.5,-10.0625 z"
       transform="translate(85.653746,182.31)"
       id="path21987"
       inkscape:connector-curvature="0"
       sodipodi:nodetypes="cccccccccccscscccscccsccccccccccccccccc" />
    <path
       style="fill:#f8a479;fill-opacity:1;stroke:#000000;stroke-width:0;stroke-linecap:butt;stroke-linejoin:miter;stroke-miterlimit:4;stroke-opacity:1;stroke-dasharray:none"
       d="M 496.875 192.5625 C 488.38623 195.58555 489.74632 207.97917 481 211.3125 C 473.04412 216.8822 465.5436 209.7415 467.03125 201.375 C 467.38311 195.54329 460.69597 189.54686 459 198.03125 C 457.82871 203.61574 454.11633 212.37797 446.875 208.53125 C 446.67627 209.21315 446.26949 209.72331 445.75 210.15625 C 441.99667 220.0181 433.00907 226.91646 427.75 236.0625 C 421.7454 244.18895 415.50156 232.82486 409.3125 235.84375 C 403.23076 243.77496 400.47135 254.21259 392.53125 260.9375 C 390.89702 262.36978 389.15553 263.59063 387.375 264.75 C 387.67005 266.06419 387.82948 267.16419 387.84375 267.96875 C 397.73604 273.07409 404.94049 282.24653 410.71875 291.5625 C 415.48479 299.72119 424.18654 303.51103 431.84375 307.71875 C 441.51988 311.02356 445.33428 298.68766 452.90625 298.28125 C 455.97019 308.1808 468.00955 308.87493 476.25 313.625 C 485.84614 316.75493 487.93308 327.96375 496.3125 332.5625 C 506.1895 338.13249 521.45628 337.50588 527.875 327 C 535.16907 317.87641 524.37326 312.49945 518.03125 308.0625 C 516.42982 301.60216 517.73389 289.9205 525.375 287.53125 C 530.27775 287.54585 535.60153 294.76963 538.125 286.46875 C 543.25397 278.03695 532.48645 269.55694 537.28125 261.25 C 543.49022 257.10756 549.187 251.67687 553.6875 245.4375 C 555.31451 239.12421 539.91186 234.56704 546.75 226.1875 C 550.93776 219.14017 541.60432 215.18826 536.5 219.6875 C 526.90855 221.00365 522.17019 210.92012 516.0625 205.4375 C 510.60221 199.98193 504.36789 194.86429 496.875 192.5625 z "
       transform="translate(85.653746,182.31)"
       id="path22000" />
    <path
       style="fill:#999999;stroke:#000000;stroke-width:0;stroke-linecap:butt;stroke-linejoin:miter;stroke-miterlimit:4;stroke-opacity:1;stroke-dasharray:none"
       d="m 343.78125,259.09375 c -0.16802,0.0588 -0.35869,0.0986 -0.53125,0.15625 0.54936,1.25637 1.29498,2.49541 2.03125,3.53125 -0.5284,-1.1948 -1.02475,-2.43567 -1.5,-3.6875 z m 46.25,3.84375 c -7.03179,5.16984 -15.27445,8.06811 -19.75,16.46875 -5.74122,3.15626 -16.93667,-1.16678 -20.5,-7.75 -0.0156,0.0274 -0.0155,0.0671 -0.0312,0.0937 -5.57006,0.21702 -1.8881,1.21278 -3.125,1.625 -1.39875,0.46636 -2.3652,1.13692 -6.5625,3.46875 -4.1973,2.33182 -4.67293,1.86533 -10.96875,3.03125 -0.97101,0.17982 -1.67248,0.34567 -2.28125,0.5 0.0113,0.0541 0.0196,0.10184 0.0312,0.15625 -0.64503,0.2577 -1.32729,0.41146 -2.0625,0.5 -0.009,0.004 -0.0224,-0.004 -0.0312,0 -1.34008,0.57767 -2.0807,1.19664 -6.8125,2.34375 -7.6947,1.86545 -5.36288,1.40136 -12.125,3.5 -6.76238,2.09863 -8.89386,5.37249 -12.625,7.9375 -3.73088,2.56499 -1.82426,2.29783 -7.1875,8.59375 -5.36323,6.29592 -2.10822,3.50942 -4.90625,8.40625 -2.79815,4.89682 -2.11984,5.86533 -4.21875,7.03125 -1.2891,0.71615 -3.58401,1.54439 -5.46875,2.1875 0.0926,0.0659 0.18917,0.12212 0.28125,0.1875 -0.71958,0.46149 -1.40654,0.96904 -2,1.53125 0.34314,0.35459 0.67144,0.69852 1,1.0625 0.005,0.006 -0.005,0.0256 0,0.0312 4.91978,5.45612 8.27602,11.9322 11.46875,18.375 0.57636,0.82946 1.03314,1.71604 1.40625,2.625 0.18655,0.45448 0.3521,0.90572 0.5,1.375 0.44371,1.40783 0.72694,2.86368 0.96875,4.34375 0.24181,1.48007 0.42868,2.97658 0.6875,4.4375 0.17255,0.97395 0.39506,1.94341 0.65625,2.875 0.39178,1.39738 0.91385,2.74285 1.6875,3.96875 0.38722,0.61298 0.85155,1.19705 1.375,1.75 0.1698,0.1787 0.34523,0.35964 0.53125,0.53125 0.86744,0.51109 1.66095,1.05777 2.40625,1.65625 0.74489,0.59819 1.45641,1.23184 2.09375,1.90625 0.3244,0.34244 0.60665,0.70246 0.90625,1.0625 0.29459,0.35422 0.57136,0.69263 0.84375,1.0625 0.82451,1.11637 1.53116,2.29692 2.1875,3.53125 0.65245,1.227 1.24463,2.50606 1.78125,3.8125 0.35705,0.87047 0.67554,1.73272 1,2.625 0.32985,0.905 0.65753,1.80273 0.96875,2.71875 0.20488,0.36675 0.40471,0.76782 0.625,1.21875 0.004,0.009 -0.004,0.0222 0,0.0312 0.2166,0.44376 0.45686,0.91209 0.6875,1.375 0.23873,0.48017 0.46581,0.9391 0.71875,1.375 0.12429,0.21401 0.24744,0.40253 0.375,0.59375 0.007,0.0112 0.0239,0.0202 0.0312,0.0312 0.1194,0.17704 0.25284,0.35005 0.375,0.5 0.0654,0.0811 0.12135,0.14679 0.1875,0.21875 0.0661,0.0711 0.12061,0.15788 0.1875,0.21875 0.005,0.005 0.0261,-0.005 0.0312,0 0.12697,0.11329 0.24538,0.21011 0.375,0.28125 0.0117,0.007 0.0196,0.0248 0.0312,0.0312 0.39917,0.20588 0.8276,0.20393 1.25,-0.125 0.14952,-0.11639 0.28528,-0.26856 0.4375,-0.46875 0.14748,-0.19146 0.2876,-0.40949 0.4375,-0.6875 0.14989,-0.27798 0.31653,-0.59622 0.46875,-0.96875 0.50617,-0.43445 1.03313,-0.86532 1.5625,-1.28125 0.96917,-0.76246 1.9673,-1.49577 3,-2.15625 2.63308,-1.68403 5.44338,-2.94264 8.28125,-3.34375 0.0308,-0.004 0.063,0.004 0.0937,0 2.04208,-0.27505 4.08044,-0.13404 6.09375,0.65625 7.01723,-2.07299 10.43836,-9.27377 16.4375,-13.03125 4.68624,-5.55088 5.45933,-13.69188 11.5,-18.53125 7.37248,-4.65198 12.54696,-12.67322 21.125,-15.375 5.92872,-6.31004 11.41671,-13.49069 19.84375,-16.40625 3.21105,-3.95212 7.1793,-9.4785 12.65625,-6.1875 5.38485,-1.46432 10.21971,-6.84699 8.40625,-11.40625 -2.58959,-2.06534 -4.89236,-4.4805 -6.65625,-7.5 -5.77826,-9.31597 -12.98271,-18.48841 -22.875,-23.59375 -0.0318,-1.79448 0.87419,-3.43589 2.1875,-5.03125 z"
       transform="translate(85.653746,182.31)"
       id="path22005"
       inkscape:connector-curvature="0"
       sodipodi:nodetypes="cccccccccssccccsccsccccccccssssscccccccsccccccccccccccccccccscccccccccccc" />
    <path
       inkscape:connector-curvature="0"
       style="fill:#ea8888;fill-opacity:1;stroke:#000000;stroke-width:0;stroke-linecap:butt;stroke-linejoin:miter;stroke-miterlimit:4;stroke-opacity:1;stroke-dasharray:none"
       d="m 166.02903,356.21102 c -0.0396,0.0105 -0.53594,0.1236 -0.53594,0.1236 0,0 -2.79974,5.12921 -8.86248,7.46103 -6.06275,2.33182 -5.58273,4.19404 -7.91447,6.0595 -2.33186,1.86546 -6.05944,7.46103 -6.05944,7.46103 0,0 1.38609,4.17547 0.45337,11.17093 -0.93272,6.99546 2.79486,4.69114 6.05944,7.95568 3.26458,3.26455 7.9452,4.18921 9.81077,3.25648 1.86544,-0.93272 5.59552,-4.65799 7.46096,-4.65799 1.86544,0 4.66768,0.92223 10.264,1.85495 5.59645,0.93273 4.66531,4.18354 8.86261,7.91446 4.1973,3.73091 2.33173,7.01487 0,11.21215 -2.33186,4.19728 -1.38859,3.70426 -1.85488,8.36789 -0.46643,4.66365 2.32606,6.10316 4.65792,7.50225 2.33186,1.39909 7.42957,0.45586 13.02588,1.85495 5.59632,1.3991 5.14704,3.71476 9.81064,6.51294 4.66372,2.79819 6.05944,7.00438 6.05944,13.06711 0,6.06274 -0.45812,7.45538 -3.25641,12.11902 -2.79815,4.66364 -8.39289,5.60607 -14.92205,5.60607 -6.52904,0 -8.41967,8.37032 -6.55423,9.76941 1.86557,1.3991 5.13662,1.87275 11.66565,4.20456 6.52917,2.33183 3.76319,0.9295 10.75866,6.05951 6.99559,5.13001 4.64987,2.83133 7.91446,3.29769 3.26445,0.46637 2.31577,0.45586 6.51307,1.85495 4.1973,1.3991 7.46584,2.30596 10.264,0.90687 2.79816,-1.39909 2.79486,-1.85981 6.05957,-4.65799 3.26432,-2.79818 4.21182,-0.91981 8.40912,-0.45343 4.1973,0.46636 6.50476,0.46878 9.76934,1.40152 3.26446,0.93271 13.5303,7.01002 19.12662,8.40911 5.59644,1.39909 7.47877,1.86788 9.81063,1.40152 2.33173,-0.46637 5.60608,-3.75113 5.60608,-3.75113 0,0 -0.49466,-5.61093 -0.49466,-8.40911 0,-2.79818 1.88325,-8.35981 2.34967,-11.62436 0.46643,-3.26455 0.92217,-12.60803 1.85489,-17.27166 0.93272,-4.66365 2.32131,-6.54609 1.85489,-9.81064 -0.46617,-3.26455 -1.37791,-6.52022 -3.70978,-10.7175 -2.33173,-4.19727 -5.60607,-8.40345 -5.60607,-13.0671 0,-4.66364 10.7175,-5.56485 10.7175,-5.56485 0,0 1.41682,-5.63116 2.34954,-12.16024 0.93272,-6.5291 -2.80542,-13.51488 -4.20456,-18.17853 -1.39915,-4.66364 -4.18358,-6.97365 -7.91446,-11.17093 -0.66363,-0.74664 -1.12517,-1.40119 -1.52525,-1.97862 -1.87691,2.78915 -4.22804,5.01422 -7.33723,5.89463 -8.80787,-3.77058 -16.59003,-8.84577 -26.38154,-7.74958 -9.54721,-7.96901 -20.60279,-9.55969 -32.60599,-8.45033 -10.90507,-1.67774 -20.98348,-8.1684 -32.44111,-5.27631 -9.62834,2.66868 -18.20392,-3.28843 -26.8349,-6.59538 l -1.27779,-0.53588 -1.23677,-0.49465 c 0.0132,-0.0423 0.033,-0.0814 0.0409,-0.1236 z"
       id="path22013" />
    <path
       inkscape:connector-curvature="0"
       style="fill:#d99a71;fill-opacity:1;stroke:#000000;stroke-width:0;stroke-linecap:butt;stroke-linejoin:miter;stroke-miterlimit:4;stroke-opacity:1;stroke-dasharray:none"
       d="m 192.41056,480.69889 c -1.91622,1.54676 -5.1068,4.00759 -6.38921,4.32822 -1.86557,0.46637 -8.83927,-1.39424 -11.171,2.80304 -2.33186,4.19728 -5.59552,5.60043 -7.46096,10.26406 -1.86557,4.66364 0,6.05385 -2.80304,10.7175 -2.79815,4.66363 -0.47856,6.05951 -7.00772,6.05951 -6.52904,0 -6.98399,-3.73092 -9.31585,0 -2.332,3.73091 -6.54684,5.60284 -2.34967,11.66558 4.1973,6.06273 6.99467,6.08215 7.46109,11.21216 0.46629,5.13 -0.0132,8.40104 0.45337,11.66558 0.46629,3.26456 5.1502,16.78428 3.75106,20.98156 -1.39902,4.19728 -1.40403,10.24791 -2.80304,16.77701 -1.39902,6.52909 -1.84434,13.07196 -3.70977,15.87014 -1.86557,2.79819 -7.4611,7.46103 -7.4611,7.46103 0,0 6.97845,7.43273 13.97391,6.96638 6.99559,-0.46638 19.58499,-6.98416 22.38315,-9.31598 2.79828,-2.33183 3.26379,-2.79497 7.46096,-6.05951 4.1973,-3.26456 7.45792,-7.45053 13.52053,-9.31598 6.06274,-1.86547 7.93728,-2.82889 13.06717,-1.89618 5.13003,0.93274 9.30556,0.9683 11.17087,4.69922 1.86557,3.73091 8.4165,14.89134 12.6138,13.02588 4.19717,-1.86545 6.05945,-3.7099 6.05945,-3.7099 0,0 4.2093,3.72525 7.00759,4.65798 2.79816,0.93274 10.264,1.85496 10.264,1.85496 0,0 3.25654,-8.85448 3.25654,-12.11902 0,-3.26456 -8.39223,-6.51294 1.40152,-6.51294 9.79361,0 11.16282,1.38616 14.4274,0.45343 3.26458,-0.93273 7.95561,-3.24838 7.95561,-6.51294 0,-3.26454 -5.59301,-3.74304 -6.05944,-7.0076 -0.46629,-3.26454 -2.79341,-5.1292 2.80304,-7.46102 5.59631,-2.33183 3.70674,0.94889 9.76948,-6.51295 6.06261,-7.46181 4.67824,-6.53073 8.40911,-8.86254 3.73101,-2.33183 6.53062,-5.15993 8.86248,-9.3572 2.33173,-4.19728 2.33912,-7.93224 4.20456,-10.26407 1.86544,-2.33181 3.71241,-5.10091 5.11142,-6.96637 1.39915,-1.86545 1.87837,-8.88033 -0.4535,-11.21215 -2.33186,-2.33182 -5.13727,-8.39862 -4.20442,-10.26407 0.93272,-1.86547 1.40139,-3.7099 1.40139,-3.7099 l -8.40912,-4.20456 c 0,0 -5.1291,-1.85495 -7.46096,-1.85495 -2.10934,0 4.04811,5.94621 -3.7099,0.2061 0,0.0164 0,0.24733 0,0.24733 0,0 -3.27435,3.28475 -5.60608,3.75112 -2.33186,0.46636 -4.21419,-0.003 -9.81063,-1.40151 -5.59632,-1.3991 -15.86216,-7.4764 -19.12662,-8.40912 -3.26458,-0.93273 -5.57217,-0.93516 -9.76934,-1.40152 -4.19744,-0.46637 -5.14493,-2.34475 -8.40912,0.45344 -3.26471,2.79818 -3.26141,3.25889 -6.05957,4.65798 -2.79816,1.3991 -6.06683,0.49223 -10.264,-0.90686 -4.19744,-1.39909 -3.24862,-1.38858 -6.51307,-1.85495 -3.26446,-0.46636 -0.91874,1.83231 -7.91446,-3.29769 -6.99547,-5.13001 -4.22949,-3.72769 -10.75866,-6.05951 -6.52903,-2.33181 -9.80008,-2.80547 -11.66565,-4.20456 -0.0462,-0.0348 -0.0818,-0.0805 -0.12399,-0.1236 z"
       id="path22018" />
    <path
       style="fill:#889ac8;fill-opacity:1;stroke:#000000;stroke-width:0;stroke-linecap:butt;stroke-linejoin:miter;stroke-miterlimit:4;stroke-opacity:1;stroke-dasharray:none"
       d="M 243.4375 319.65625 C 242.84721 319.65625 242.2704 319.76679 241.6875 320 C 239.52208 320.86611 233.43996 323.12966 232.53125 323.46875 C 232.28468 323.86048 231.99054 324.25422 231.71875 324.65625 C 231.51104 325.22437 231.29293 325.85164 230.96875 326.5 C 230.0359 328.36545 232.82439 334.44943 235.15625 336.78125 C 237.48812 339.11307 237.02415 346.1033 235.625 347.96875 C 234.22599 349.83421 232.36544 352.60569 230.5 354.9375 C 228.63456 357.26933 228.64423 361.02147 226.3125 365.21875 C 223.98064 369.41602 221.16851 372.23067 217.4375 374.5625 C 213.70663 376.89431 215.09386 375.97569 209.03125 383.4375 C 202.96851 390.89934 204.84631 387.60567 199.25 389.9375 C 193.65355 392.26932 196.00246 394.14171 196.46875 397.40625 C 196.93518 400.67081 202.5 401.14171 202.5 404.40625 C 202.5 407.67081 197.82708 410.00477 194.5625 410.9375 C 191.29792 411.87023 189.91861 410.46875 180.125 410.46875 C 170.33125 410.46875 178.71875 413.70419 178.71875 416.96875 C 178.71875 419.8094 176.35781 426.5536 175.71875 428.34375 C 175.72066 428.3536 175.71682 428.36516 175.71875 428.375 C 177.16312 435.7274 184.1696 442.23378 190.90625 444.625 C 198.21359 444.43546 207.09254 431.36455 210.625 443.75 C 212.07958 451.84667 219.54348 455.05157 226.75 456.1875 C 234.065 456.82831 241.21847 454.19565 247.96875 451.75 C 255.10791 447.73405 258.2893 437.50421 267.4375 437.09375 C 273.32403 435.73505 275.9344 443.16609 273.53125 447.53125 C 283.86222 446.63594 288.38617 436.62352 294.1875 429.84375 C 300.38942 423.67841 301.41957 414.85156 310.0625 411.65625 C 315.07987 405.67161 317.42777 398.58253 323.75 393.90625 C 326.07564 389.20522 323.63708 383.17063 321.3125 379.34375 C 316.72536 379.96861 312.19788 382.8438 308.375 386.125 C 305.93946 392.08541 303.79527 385.43398 302.15625 382.5 C 299.70132 375.27436 296.90831 368.21373 289.96875 364.125 C 283.83619 358.46733 286.76712 348.85443 282.15625 342.21875 C 278.74705 335.33911 275.17769 328.42346 269.6875 322.75 L 269.9375 323.09375 C 267.61223 323.43066 265.46875 323.6875 265.46875 323.6875 C 265.46875 323.6875 261.26458 325.56011 258 325.09375 C 254.73515 324.62738 246.8125 320.4375 246.8125 320.4375 C 246.8125 320.4375 245.20823 319.65625 243.4375 319.65625 z M 269.6875 322.75 C 270.28096 322.18779 270.96792 321.68024 271.6875 321.21875 C 271.58356 321.14495 271.47972 321.07582 271.375 321 C 270.37029 321.34798 268.96875 321.84375 268.96875 321.84375 L 269.6875 322.75 z "
       transform="translate(85.653746,182.31)"
       id="path22023" />
    <path
       style="color:#000000;fill:#b583b5;fill-opacity:1;fill-rule:nonzero;stroke:#ff0000;stroke-width:0;stroke-linecap:butt;stroke-linejoin:round;stroke-miterlimit:4;stroke-opacity:1;stroke-dasharray:none;stroke-dashoffset:0;marker:none;visibility:visible;display:inline;overflow:visible;enable-background:accumulate"
       d="M 244.96875 164.625 C 238.85048 168.4623 232.22776 171.58005 226 174.875 C 223.74913 178.74368 214.86799 182.39158 214.90625 182.46875 C 213.20648 186.91005 211.41875 192.78893 208.4375 197.21875 C 208.83784 197.79618 209.30512 198.47211 209.96875 199.21875 C 213.69963 203.41602 216.47585 205.71136 217.875 210.375 C 219.27414 215.03864 223.02647 222.0334 222.09375 228.5625 C 221.16103 235.09159 219.75 240.71875 219.75 240.71875 C 219.75 240.71875 209.03125 241.61761 209.03125 246.28125 C 209.03125 250.94489 212.29327 255.14647 214.625 259.34375 C 216.95674 263.54103 217.87772 266.79794 218.34375 270.0625 C 218.81017 273.32704 217.43272 275.21135 216.5 279.875 C 215.56728 284.53864 215.0913 293.89171 214.625 297.15625 C 214.15858 300.42081 212.28125 305.98306 212.28125 308.78125 C 212.28125 311.47107 212.74563 316.5319 212.78125 316.9375 C 220.53926 322.67761 214.39066 316.71875 216.5 316.71875 C 218.83186 316.71875 223.9375 318.59375 223.9375 318.59375 L 232.34375 322.78125 C 232.34375 322.78125 232.24161 323.24185 232.125 323.625 C 232.43762 323.508 239.40668 320.91227 241.6875 320 C 242.2704 319.76679 242.84721 319.65625 243.4375 319.65625 C 245.20823 319.65625 246.8125 320.4375 246.8125 320.4375 C 246.8125 320.4375 254.73515 324.62738 258 325.09375 C 261.26458 325.56011 265.46875 323.6875 265.46875 323.6875 C 265.46875 323.6875 267.61223 323.43066 269.9375 323.09375 L 268.96875 321.84375 C 268.96875 321.84375 274.77634 320.00965 276.875 318.84375 C 278.97391 317.67783 278.2956 316.70932 281.09375 311.8125 C 283.89178 306.91567 280.63677 309.70217 286 303.40625 C 291.36324 297.11033 289.45662 297.37749 293.1875 294.8125 C 296.91864 292.24749 299.05012 288.97363 305.8125 286.875 C 312.57462 284.77636 310.2428 285.24045 317.9375 283.375 C 325.63246 281.50955 322.79779 281.04091 329.09375 279.875 C 335.38957 278.70908 335.8652 279.17557 340.0625 276.84375 C 344.2598 274.51192 345.22625 273.84136 346.625 273.375 C 347.8619 272.96278 344.17994 271.96702 349.75 271.75 C 349.76579 271.72337 349.76566 271.68363 349.78125 271.65625 C 349.33878 270.8382 349.02613 269.9713 348.84375 269.09375 C 343.00002 261.05751 341.73108 249.12903 335.59375 240.59375 C 332.71335 239.17319 326.52419 237.63077 319.375 236.0625 C 319.36503 236.0633 319.35371 236.06169 319.34375 236.0625 C 317.24076 236.23207 315.55744 236.64215 314.9375 237.46875 C 312.83872 240.26693 314.44239 242.34375 309.3125 242.34375 C 304.18248 242.34375 303.00967 245.82227 298.8125 241.625 C 294.61546 237.42772 297.65417 232.7933 291.125 232.09375 C 284.59571 231.39421 280.39695 229.07932 278.53125 229.3125 C 276.66581 229.54569 276.18736 230.21386 273.15625 232.3125 C 270.12488 234.41113 271.29337 238.14683 267.5625 233.25 C 263.83149 228.35318 263.37731 226.48807 260.8125 224.15625 C 258.24742 221.82443 257.80784 220.16353 253.84375 218.53125 C 249.87979 216.89898 248.00001 214.83433 251.03125 209.9375 C 254.06262 205.04068 253.83898 201.80058 255.9375 199.46875 C 258.03642 197.13693 259.66127 193.84625 254.53125 191.28125 C 249.40109 188.71624 245.65392 191.30024 245.1875 185.9375 C 244.72081 180.57431 242.38702 179.3824 244.71875 174.71875 C 245.90658 172.34335 245.49031 168.03674 244.96875 164.625 z M 332.3125 236.09375 C 331.46436 236.12014 330.63818 236.15347 329.75 236.1875 C 330.96702 236.22672 331.99472 236.21527 332.3125 236.09375 z "
       transform="translate(85.653746,182.31)"
       id="rect22104" />
  </g>
</svg>
